<svg width="32" height="32" viewBox="0 0 32 32" fill="none" xmlns="http://www.w3.org/2000/svg">
<g id="user-multiple-group--close-geometric-human-multiple-person-up-user" clip-path="url(#clip0_9_890)">
<g id="user-multiple-group--close-geometric-human-multiple-person-up-user_2">
<path id="Union" fill-rule="evenodd" clip-rule="evenodd" d="M18.2666 10.2004C18.2666 13.9559 15.2222 17.0004 11.4666 17.0004C7.71111 17.0004 4.66663 13.9559 4.66663 10.2004C4.66663 6.44486 7.71111 3.40039 11.4666 3.40039C15.2222 3.40039 18.2666 6.44486 18.2666 10.2004ZM11.4666 19.267C5.20742 19.267 0.133301 24.3411 0.133301 30.6003C0.133301 31.2261 0.640712 31.7337 1.26663 31.7337H21.6666C22.2926 31.7337 22.8 31.2261 22.8 30.6003C22.8 24.3411 17.7259 19.267 11.4666 19.267ZM30.7335 31.7337H25.4692C25.5762 31.3746 25.6335 30.994 25.6335 30.6003C25.6335 25.9738 23.4158 21.8654 19.9855 19.28C20.1671 19.2714 20.3498 19.267 20.5335 19.267C26.7927 19.267 31.8669 24.3411 31.8669 30.6003C31.8669 31.2261 31.3594 31.7337 30.7335 31.7337ZM20.5335 17.0004C19.8496 17.0004 19.1892 16.8994 18.5666 16.7116C20.1399 14.997 21.1001 12.7108 21.1001 10.2004C21.1001 7.68994 20.1399 5.40378 18.5666 3.68919C19.1892 3.50135 19.8496 3.40039 20.5335 3.40039C24.2889 3.40039 27.3335 6.44486 27.3335 10.2004C27.3335 13.9559 24.2889 17.0004 20.5335 17.0004Z" fill="white"/>
</g>
</g>
<defs>
<clipPath id="clip0_9_890">
<rect width="31.7333" height="31.7333" fill="white" transform="translate(0.133301)"/>
</clipPath>
</defs>
</svg>
