<svg width="150" height="151" viewBox="0 0 150 151" fill="none" xmlns="http://www.w3.org/2000/svg">
<g id="file-plus-02">
<path id="Icon" d="M125 66.125V43C125 32.499 125 27.2485 122.956 23.2377C121.159 19.7096 118.29 16.8413 114.762 15.0436C110.751 13 105.501 13 95 13H55C44.499 13 39.2485 13 35.2377 15.0436C31.7096 16.8413 28.8413 19.7096 27.0436 23.2377C25 27.2485 25 32.499 25 43V108C25 118.501 25 123.751 27.0436 127.762C28.8413 131.29 31.7096 134.159 35.2377 135.956C39.2485 138 44.499 138 55 138H75M87.5 69.25H50M62.5 94.25H50M100 44.25H50M112.5 131.75V94.25M93.75 113H131.25" stroke="#8E48E8" stroke-width="10" stroke-linecap="round" stroke-linejoin="round"/>
</g>
</svg>
