<svg width="30" height="30" viewBox="0 0 30 30" fill="none" xmlns="http://www.w3.org/2000/svg">
<g id="user-speaking--user-speaking-voice-active" clip-path="url(#clip0_2_619)">
<g id="user-speaking--user-speaking-voice-active_2">
<path id="Union" fill-rule="evenodd" clip-rule="evenodd" d="M27.0189 0.470721C28.9277 2.37958 30 4.96854 30 7.66806C30 10.3676 28.9277 12.9565 27.0189 14.8654C26.3912 15.493 25.3736 15.493 24.7459 14.8654C24.1183 14.2378 24.1183 13.2202 24.7459 12.5925C26.052 11.2865 26.7857 9.5151 26.7857 7.66806C26.7857 5.82101 26.052 4.04961 24.7459 2.74356C24.1183 2.11594 24.1183 1.09835 24.7459 0.470721C25.3736 -0.156907 26.3912 -0.156907 27.0189 0.470721ZM4.28571 8.57143C4.28571 5.02104 7.16389 2.14286 10.7143 2.14286C14.2647 2.14286 17.1429 5.02104 17.1429 8.57143C17.1429 12.1218 14.2647 15 10.7143 15C7.16389 15 4.28571 12.1218 4.28571 8.57143ZM10.7143 17.1429C4.79696 17.1429 0 21.9399 0 27.8571V28.9286C0 29.5202 0.479696 30 1.07143 30H20.3571C20.9489 30 21.4286 29.5202 21.4286 28.9286V27.8571C21.4286 21.9399 16.6316 17.1429 10.7143 17.1429ZM24.6433 7.66817C24.6433 6.38946 24.1352 5.16311 23.2311 4.25891C22.6035 3.63129 21.5859 3.63129 20.9582 4.25891C20.3306 4.88655 20.3306 5.90413 20.9582 6.53175C21.2596 6.83314 21.429 7.24194 21.429 7.66817C21.429 8.09441 21.2596 8.5032 20.9582 8.80459C20.3306 9.43224 20.3306 10.4498 20.9582 11.0774C21.5859 11.7051 22.6035 11.7051 23.2311 11.0774C24.1352 10.1733 24.6433 8.9469 24.6433 7.66817Z" fill="white"/>
</g>
</g>
<defs>
<clipPath id="clip0_2_619">
<rect width="30" height="30" fill="white"/>
</clipPath>
</defs>
</svg>
